/* XPM */
static char *CodeMemory[] = {
/* width height ncolors chars_per_pixel */
"45 37 2 1",
/* colors */
"A c #FFFFFFFFFFFF",
"B c #000000000000",
/* pixels */
"BBBBBBBBBBBBBBBBBBBBBBBBBBBBBBBBBBBBBBBBBBBBB",
"BAAAAAAAAAAAAAAAAAAAAAABAAAAAAAAAAAAAAAAAAAAB",
"BAAAAAAAAAAAAAAAAAAAAAABAAAAAAAAAAAAAAAAAAAAB",
"BAAAAAAAAAAAAAAAAAAAAAABAAAAAAAAAAAAAAAAAAAAB",
"BAAAAAAAAAAAAAAAAAAAAAABAAAAAAAAAAAAAAAAAAAAB",
"BAAAAAAAAAAAAAAAAAAAAAABAAAAAAAAAAAAAAAAAAAAB",
"BAAAAAAAAAAAAAAAAAAAAAABAAAAAAAAAAAAAAAAAAAAB",
"BAAAAAAAAAAAAAAAAAAAAAABAAAAAAAAAAAAAAAAAAAAB",
"BAAAAAAAAAAAAAAAAAAAAAABAAAAAAAAAAAAAAAAAAAAB",
"BAAAAAAAAAAAAAAAAAAAAAABAAAAAAAAAAAAAAAAAAAAB",
"BAAAAAAAAAAAAAAAAAAAAAABAAAAAAAAAAAAAAAAAAAAB",
"BAAAAAAAAAAAAAAAAAAAAAABAAAAAAAAAAAAAAAAAAAAB",
"BBBBBBBBBBBBBBBBBBBBBBBBAAAAAAAAAAAAAAAAAAAAB",
"BAAAAAAAAAAAAAAAAAAAAAABAAAAAAAAAAAAAAAAAAAAB",
"BAAAAAAAAAAAAAAAAAAAAAABAAAAAAAAAAAAAAAAAAAAB",
"BAAAAAAAAAAAAAAAAAAAAAABAAAAAAAAAAAAAAAAAAAAB",
"BAAAAAAAAAAAAAAAAAAAAAABAAAAAAAAAAAAAAAAAAAAB",
"BAAAAAAAAAAAAAAAAAAAAAABAAAAAAAAAAAAAAAAAAAAB",
"BAAAAAAAAAAAAAAAAAAAAAABAAAAAAAAAAAAAAAAAAAAB",
"BAAAAAAAAAAAAAAAAAAAAAABAAAAAAAAAAAAAAAAAAAAB",
"BAAAAAAAAAAAAAAAAAAAAAABAAAAAAAAAAAAAAAAAAAAB",
"BAAAAAAAAAAAAAAAAAAAAAABAAAAAAAAAAAAAAAAAAAAB",
"BAAAAAAAAAAAAAAAAAAAAAABAAAAAAAAAAAAAAAAAAAAB",
"BAAAAAAAAAAAAAAAAAAAAAABAAAAAAAAAAAAAAAAAAAAB",
"BBBBBBBBBBBBBBBBBBBBBBBBAAAAAAAAAAAAAAAAAAAAB",
"BAAAAAAAAAAAAAAAAAAAAAABAAAAAAAAAAAAAAAAAAAAB",
"BAAAAAAAAAAAAAAAAAAAAAABAAAAAAAAAAAAAAAAAAAAB",
"BAAAAAAAAAAAAAAAAAAAAAABAAAAAAAAAAAAAAAAAAAAB",
"BAAAAAAAAAAAAAAAAAAAAAABAAAAAAAAAAAAAAAAAAAAB",
"BAAAAAAAAAAAAAAAAAAAAAABAAAAAAAAAAAAAAAAAAAAB",
"BAAAAAAAAAAAAAAAAAAAAAABAAAAAAAAAAAAAAAAAAAAB",
"BAAAAAAAAAAAAAAAAAAAAAABAAAAAAAAAAAAAAAAAAAAB",
"BAAAAAAAAAAAAAAAAAAAAAABAAAAAAAAAAAAAAAAAAAAB",
"BAAAAAAAAAAAAAAAAAAAAAABAAAAAAAAAAAAAAAAAAAAB",
"BAAAAAAAAAAAAAAAAAAAAAABAAAAAAAAAAAAAAAAAAAAB",
"BAAAAAAAAAAAAAAAAAAAAAABAAAAAAAAAAAAAAAAAAAAB",
"BBBBBBBBBBBBBBBBBBBBBBBBBBBBBBBBBBBBBBBBBBBBB"};
