/* XPM */
static char *execute_icon[]={
"32 32 5 1",
". c None",
"# c #303030",
"a c #808000",
"b c #ff0000",
"c c #ffffff",
"................................",
"................................",
"................................",
"................................",
"................................",
"................................",
"................................",
".....#.a.a.a.a.a.a.a.#..........",
".....#a.a.a.a.a.a.a.a#..........",
".....#.a.a.a.a.a.a.a.#..........",
".....#a.a.a.a.a.a.a.a#..........",
"......#a.a.a.a.a.a.a#...........",
".......#a.a.a.a.a.a#............",
"........#a.a.a.a.a#.............",
"........#.a.a.a.a.#.......b.....",
"........#a.a.a.a.a#......b#.....",
".....########a########..b####...",
".....#cccccccaccccccc#...b#.#...",
".....#caaaaaaaccccccc#....b.#...",
".....#caccccccccccccc#...#...#..",
".....#caccccccccccccc###.#...#..",
".....#cacaaaaaaaaaaaa#.#.#...#..",
".....#aaaaaaaaaaaaaaa#.####..#..",
".....#aaaaaaaaaaaaaaa#...#...#..",
".....#################...#...#..",
".........................#...#..",
"..........................#.b...",
"..........................#.#b..",
"..........................####b.",
"............................#b..",
"............................b...",
"................................"};
