/* XPM */
static char *expand[]={
"32 32 203 2",
"#h c #5c4f00",
"an c #5c5000",
"#m c #5d5100",
"ak c #5e4e01",
"a4 c #5e4f00",
"#j c #5f4e00",
"al c #5f4f01",
"a6 c #5f5000",
"aG c #5f5f5f",
"aj c #604f00",
"#k c #604f01",
"#i c #615002",
"bb c #65570c",
"av c #655a0b",
"#y c #66580d",
"a5 c #706219",
"#l c #71631a",
"am c #73601c",
"#c c #74746a",
"bh c #74766b",
"#W c #75746f",
"#C c #75756b",
".x c #75756d",
".S c #76736c",
"bd c #767468",
"#1 c #77726c",
".0 c #77746b",
"#P c #77746d",
"#Y c #777569",
"#X c #78756e",
"aJ c #7e7e7c",
"aL c #7e7e7e",
"aK c #7f7f7d",
"aH c #7f7f7f",
"aM c #7f7f81",
"a2 c #807638",
"aI c #808080",
"#f c #817636",
"#t c #817638",
"b# c #827435",
"#u c #837335",
"as c #837536",
"at c #837538",
"#x c #847436",
"au c #847438",
"#M c #8f8f8f",
".q c #8f8f91",
"aq c #99935f",
"#v c #9a935d",
"ao c #9a935f",
"a9 c #9b915c",
"#n c #9c925f",
"#r c #9d915f",
"ae c #a39d6b",
"#w c #a49c6d",
"#d c #a69b6d",
"a0 c #a69c6b",
".8 c #a79a6d",
"ah c #a79d6a",
"ba c #a89c6c",
".# c #b0ada4",
".f c #b0aea1",
".c c #b0aea2",
"#S c #b1ada1",
".b c #b1ada2",
".g c #b1ae9f",
"aR c #b1aea5",
".e c #b1afa2",
".a c #b1afa3",
".d c #b2aea2",
".M c #b2aea3",
"aO c #b2aea5",
"#Z c #b3afa3",
"ap c #b5b086",
"a7 c #b6af85",
"af c #b7af88",
"#p c #b8af84",
".9 c #b8af86",
"aZ c #b8b08b",
"#F c #beb894",
"az c #beb993",
"aS c #bebebc",
".r c #bebebe",
"#. c #bebec0",
"#N c #bec0bd",
"#O c #bec0bf",
".v c #bfbdbe",
".E c #bfbfbd",
".t c #bfbfbf",
".w c #bfbfc1",
"bf c #bfc0bb",
"#A c #bfc1c0",
"bc c #c0b894",
".s c #c0bebf",
"#4 c #c0bec1",
"#I c #c0bfbd",
"aB c #c0c0be",
".u c #c0c0c0",
"## c #c0c0c2",
"#o c #c1bfc0",
"#e c #c6c3a2",
"a1 c #c7c2a2",
"#g c #c7c3a0",
"ai c #c8c2a2",
"a3 c #c8c4a1",
"#T c #cdcbbc",
"#B c #cdcfce",
".h c #cecbbc",
"#V c #cfccbd",
".D c #cfcfcd",
"#3 c #cfcfcf",
"aP c #d0cabe",
"b. c #d0ccaf",
"#q c #d1cbb1",
"#s c #d1ccaf",
"#z c #d1cdb0",
"ax c #d1d0cc",
"aW c #d2cbae",
"aa c #d2cbaf",
".3 c #d2cdad",
"a8 c #d2cdaf",
"ar c #d4cbae",
".5 c #d9d5ba",
".1 c #d9d5bc",
"a. c #dad4bc",
"ac c #dad6bd",
"aY c #dbd5bd",
"aV c #dcd6be",
"#6 c #dedede",
"aT c #dee0df",
"aN c #dfd8c5",
"Qt c #dfdac6",
".N c #dfdfdf",
".R c #dfdfe1",
".O c #e0dedf",
"#K c #e0dee1",
"#7 c #e0e0e0",
".2 c #e1dfca",
"#8 c #e1dfe0",
"ab c #e1e0cb",
"a# c #e2e0cb",
"aA c #e4ddca",
"aX c #e4dfc9",
"#G c #e4dfcb",
".4 c #e4dfcc",
".W c #e9eadc",
".L c #eae8d9",
"#5 c #eae9d4",
".C c #eae9d5",
"#E c #eae9d7",
"aE c #eaebd9",
".z c #ebe8d5",
".j c #ebe8d7",
".y c #ebe8d9",
"#L c #ebe9d4",
".7 c #ebe9da",
".I c #ebead5",
".V c #ebead6",
".n c #ebead8",
"aF c #ece8dc",
"#D c #ece9d6",
".o c #ece9d8",
".i c #ece9da",
"#0 c #eceadb",
".T c #ecebd7",
".A c #ecebd9",
".B c #ede7d7",
".m c #ede7d9",
".K c #ede8d4",
"#Q c #edead7",
".k c #edead9",
".J c #edeadb",
"#U c #edebd6",
"ad c #eee7d7",
".l c #eee8d8",
"#H c #eee8da",
".6 c #eee9d5",
".p c #eee9d6",
"#R c #eeebdc",
"#J c #eeeeec",
".F c #eeeeee",
"aw c #eeeef0",
"ag c #efe8d5",
"bi c #efe8d6",
".U c #efe9d9",
"aD c #efe9db",
"ay c #efe9dd",
"aQ c #efead6",
"#2 c #efead7",
"be c #efefed",
".Q c #efefef",
"#a c #f0f0f0",
"bg c #fdfeff",
"aC c #fefefc",
".X c #fefefe",
".P c #fefeff",
"aU c #fefffa",
"#9 c #fefffd",
".Y c #feffff",
".Z c #fffdfe",
"#b c #fffeff",
".H c #fffffd",
".G c #ffffff",
"Qt.#.a.b.c.c.d.a.e.e.f.e.f.f.e.e.a.c.g.h.i.j.k.l.m.n.k.n.o.o.p.n",
".#.q.r.s.t.u.s.t.t.t.u.r.t.t.t.t.v.t.w.x.y.o.z.A.z.l.z.k.y.B.A.C",
".a.t.D.t.r.t.E.r.t.r.t.t.t.F.G.G.H.G.G.x.I.l.o.n.n.i.J.K.o.o.L.o",
".M.t.N.O.G.P.O.t.r.u.t.t.t.u.Q.G.R.w.H.S.T.l.n.U.l.V.L.i.p.W.V.j",
".a.t.G.X.Y.G.G.G.G.G.X.G.G.X.G.G.Y.G.Z.0.1.2.3.4.5.6.7.7.8.9.B.k",
".c.r.N.w#.##.r.t.t.u#a.G.Q.r.u.t.t#b.G#c#d#e#f#g#h#i#j#k#l#m#n.p",
".d#o.H#b.G.G.H.G.H.H.H.H.H.H.H.H.H#b.X.S#p#q#r#s#t#u#v#w#x#y#z.V",
".a.t.Q.u.t#a.G.N.t.u.t.t.t.t.t.u#A#B.G#C.j#D.i.V.p#E.7.i#F#G.n#H",
".b#I#J.t.E.t.s.t.t.t.Q.G.G.N.t.r.t#K.Y.S.n#H.j.o.o.o.y.7#L#D.o.l",
".##M.t.r#N#O.t.t.t.r.t.t.t.t.t.u.E#I.E#P.o.i#Q.y.V.7#D.j#R.y#D.i",
"Qt.c.a.M.e.f#S.f.f.e.e.f.f.e.f.f.#.a.f#T.i#U#E.A.o.o.l.p.o.V.7#E",
"#V#W.x.S.0#P#P#P#P.S.S#X#X.S#P#P#P.0#Y#Z.L#D.n.o.7.7.z.k#0.n.j.o",
".a.u.H.G.H.X.G.G.G.G.G.X.G.G.G.G.Y.G.G#1.n#H#D.l.p#H.o#D.y.o.i#2",
".a.r#3.v.t.w#4.w.t.t.t.t.r.Q.G.G.X#b.Y.0.7.y.j.A.o.i#5.i.i.z.o.7",
".c.E#6#7.Y.G.N.t.t.u.r.r.u.t.F.G#8.v#9#ca.a#aaabac.j.kadaeafag.o",
".M.t.G.P.X.G.G.H.G.G.G.G.X.G.G.G.X.G.Y.xah#g#taiajakal#jamanao.l",
".c.u.N.s.t.w#I.t.t.t.Q.G.F.r.t.t.w.G#b#1apaaaqarasat#v#wauavaa.k",
".a.r#a.t.taw.G.N.t.u.t.t.t.u.t.t#Iax.X#Y.j#Q.i.7.Cay.o.oazaA.k.o",
".faBaC.G.G.G.G.G.G.X.G.X.G.X.G.G.G.P.Y#P.z.jaD.zaE.n.j#D.z#0.L.o",
".a##.Q#o.w.w.s.w.t.u.Q.G.G.N.u.r#N.N.Y.x#U#E#D.7.paF.k.y.n.C.i.7",
".caGaHaHaHaIaJaKaHaHaHaHaHaLaHaIaMaKaI.S.i.A.o.o.l.n.i#D.n.o#H.n",
"aNaO.a.M.a.a#S.e.f.e.e.e.e.e.e.e.M.d.faP.p.n.k.7.i.V.z.l.n#D.paQ",
"aR.q.t.s.t.r.s.t.t.t.t.u.t.r.u.t#O.E.w#P.o.n.z.o#D.k.o.o.7.A.7.o",
".a.t.DaS.t.t.t.t.t.t.t.t.t.Q.G.G#9.G.G#P#D.n.o#D.o.y.o.o.o.k#DaF",
".c.t#6#7.G.G.N.t.u.t.t.t.t.t.Q.GaT.waU.SaV.4aWaXaY#D.L.i#daZ.o#D",
".d.saC#b.G.G.H.G.H.H.H.HaC.H.H.H#b.Z.G#Pa0a1a2a3a4alal#ja5a6#r.i",
".a.r#7.w.w.w.t.t.t.u.F.G.Q.t.u.t.w.G.P#Wa7a8a9b.asb##vba#xbba8.V",
".a.u.G.G.Y.G.G.G.G.G.G.G.G.G.G.G.G.X.H#C.i.z.6.i.l.7.7.zbc#G.V.i",
".b.t.Q#o.taw#b.N.u.r.t.t.r.t.u.t.t#3#bbd#0.j.n.o.z#E.k.7.o.A.B.k",
".a.tbe.t.u.t.E.t.r.u.F.G.G.N.r.tbf#6bgbh#D.7.p.7#Ebi#L.7.o.l.7.j",
".#.q.t#o.t.t#o.t.t.t.u.t.t.t.t.t.v##.t#c.o.i.p.V.n.l.i.p.o.o.LaQ",
"QtaR.a.b.a.a#S.a.e.e.f.f.e.f.e.e.e.c.b.h.n.l.n.l.o#D.y.n.p.o.o.o"};
