/* XPM */
static char *load_icon[]={
"32 32 7 1",
". c None",
"d c #000000",
"b c #040404",
"# c #303030",
"a c #808304",
"e c #f3f7f3",
"c c #ffffff",
"................................",
"................................",
"................................",
"................................",
"................................",
"................................",
"...#####################........",
"...#...................#........",
"...#...###########.....#........",
"...#...#.........#.....#........",
"...#...#.......#####.#####......",
"...#...#........###...###.......",
"...#...#.........#.....#........",
"...#...#......#........a.#......",
".bbbbbbb......#..a.......#......",
".bcccccbb.....#a.........#......",
".bcccccbcb....#.a.a.a.a.a#......",
".bcccccbccb....#.a.a.a.a#.......",
".bcaaccbbbbd....#.a.a.a#........",
".bcecccecccd.....#.a.a#.........",
".bcccccccccd.....#a.a.#.........",
".bcaaacaaccd.....#.a.a#.........",
".bcccccccccd..#####bb#####......",
".bcccccccccd..#eeeeeeeeee#......",
".bcaccaaaccd..#eeeeeeeeee#......",
".bcccccccccd..#eeeeeeeeee###....",
".dcccccccccd..#eeeeeeeeee#.#....",
".dcccccccccd..#eeeeeeeeee#.####.",
".ddddddddddd..############......",
"................................",
"................................",
"................................"};
