/* XPM */
static char *mem[]={
"32 32 295 2",
"aW c #000000",
"bx c #000002",
"c# c #000004",
"bA c #000100",
"bB c #000103",
"bw c #010000",
"cr c #010002",
"bg c #010100",
"bh c #010101",
"bU c #010103",
"aX c #010302",
"bn c #020001",
"ce c #020200",
"aY c #0a0603",
"bE c #0e0e10",
"cm c #0f0f0d",
"ch c #0f0f0f",
"cj c #120e0f",
"bQ c #1c1e1b",
"cw c #1d1c18",
"b8 c #1d1d1b",
"bR c #1e1d1b",
"ck c #1e1e1c",
"bf c #1e201f",
"cl c #1f1f21",
"ca c #202020",
"bD c #2b2a25",
"bI c #2b2c27",
"b9 c #2c2b27",
"cx c #2d2c27",
"b1 c #2d2c2a",
"be c #2e1e1f",
"#8 c #2f2121",
"b2 c #2f2f31",
"cg c #393833",
"bF c #3a3b36",
"bH c #3b3a35",
"bC c #3b3a36",
"a3 c #3c3b37",
"bG c #3d3938",
"bl c #3d3a35",
"a5 c #3d3d3b",
"co c #3f3e43",
"bT c #3f3f3f",
"aZ c #432b2b",
"aV c #442a2d",
"#V c #494a44",
"bv c #4b3331",
"am c #4c3d3a",
".l c #4d4c47",
"bm c #56584d",
"cs c #575652",
"cy c #57574f",
"cA c #595552",
"cq c #5a5655",
"a0 c #5b423e",
"aw c #5d4d00",
"ac c #5d5100",
"b6 c #5d5411",
".t c #5d5c5a",
"#N c #604f00",
"aG c #654747",
"aM c #65570c",
"b. c #66580d",
"ba c #66580f",
"ar c #67570c",
"#Z c #68570f",
"bS c #68655e",
"bo c #69590c",
"bi c #69645e",
"av c #6b570e",
".J c #6d504a",
"aE c #704e4d",
"an c #707070",
"#7 c #714a4d",
"aS c #71621f",
"bs c #71631c",
"bd c #724b4c",
"aD c #724f4d",
"aR c #72611c",
"#Q c #734b4b",
"ah c #734b4c",
"ak c #734d4a",
"#6 c #744a4c",
"al c #744c4d",
"#L c #74746a",
".Z c #74756d",
".L c #75756d",
"bu c #76736e",
"#b c #77736a",
"#n c #77746b",
"a9 c #786b27",
"b7 c #78736d",
".E c #78746b",
"#x c #78766a",
"ab c #79692d",
"#S c #7a5250",
"aU c #7a5658",
"aA c #7a5755",
"#p c #7a5f58",
"aj c #7b5351",
"bp c #7b6a25",
"#4 c #7c5253",
"#K c #7c5d5a",
"#U c #7d5150",
"aB c #7d5152",
"#G c #7e5253",
"#g c #7e5c5a",
"bz c #7e7f81",
"bJ c #7e807f",
"#2 c #7f5b5b",
".6 c #7f5c5a",
"a2 c #7f7a74",
".U c #805d5b",
"at c #807535",
"a8 c #807537",
"#3 c #83595a",
"#a c #836662",
"bV c #83857a",
".j c #84847a",
"az c #855958",
"aa c #857537",
"a1 c #887770",
"a7 c #8b8042",
"#q c #8d5f61",
"aF c #8d605d",
"#h c #8e6060",
"aK c #8e908d",
".7 c #8f5f5f",
"ag c #90605e",
".V c #906060",
".x c #919284",
"cn c #929288",
"ad c #93894e",
"c. c #939486",
"aH c #94867d",
"aJ c #958e86",
"bP c #959185",
"#B c #968480",
"#f c #96857b",
"#H c #976763",
"#s c #976765",
"#J c #976767",
".T c #97847d",
".5 c #97867e",
"#w c #97867f",
"#E c #986466",
"#T c #986562",
"#l c #986564",
".8 c #986665",
".9 c #986667",
"#R c #986669",
"#5 c #98676a",
"#t c #986866",
".W c #986868",
".I c #98847b",
".X c #996567",
"#I c #996569",
"#. c #996665",
"#k c #996766",
"#C c #996768",
"#P c #996864",
"aP c #999160",
"#i c #9a6366",
"#j c #9a6464",
"## c #9a6668",
"#r c #9a666a",
"#D c #9a6764",
"#u c #9a6766",
"ai c #9a6869",
"#F c #9b6467",
"aC c #9b6469",
"#v c #9b6565",
"a6 c #9b915c",
"af c #9c8e85",
"aO c #9c925d",
"bc c #a1978e",
"a4 c #a1a197",
".Y c #a2958c",
"cC c #a3a097",
"cD c #a3a194",
"cz c #a4a094",
"br c #a59e6a",
"#o c #a59f91",
"as c #ada479",
"aq c #aea57a",
"bX c #b0ada4",
"bW c #b0aea1",
"bZ c #b1afa0",
"b0 c #b1afa3",
"bk c #b2aea3",
"bY c #b2b0a4",
"bK c #b3b087",
"ax c #b5b086",
"bb c #b7af88",
"aQ c #b8b089",
"bN c #baae88",
"cf c #bdbdb1",
"cv c #bdbeae",
".H c #bdbeb0",
"aN c #bfb997",
"#m c #bfbdb0",
".k c #bfbdb1",
".y c #bfbfbd",
"b5 c #c0b893",
"#M c #c0b894",
".4 c #c0bcb0",
"cE c #c0beb2",
"by c #c0bfbd",
".S c #c1bdb1",
"#e c #c1beaf",
"au c #c8c49f",
"b# c #cac1a2",
"ay c #cdcac1",
"cp c #cdcbbc",
".K c #cecabe",
"cB c #cecdbb",
"cd c #cfd0cb",
"ae c #d0ccaf",
".m c #d0cecf",
"#0 c #d1cbb1",
"#O c #d1ccae",
"#A c #d8d6c1",
"aL c #d9d5ba",
".i c #d9dacc",
"bq c #dcd6c0",
"ci c #dddcc8",
"#9 c #dddfde",
"bM c #e1e0cc",
"#Y c #e4dfcb",
"bL c #e6decb",
"aT c #e8ead5",
".O c #e9e8d6",
".P c #e9ead8",
"#1 c #e9eada",
".r c #e9ebd6",
"cK c #eae7d6",
".3 c #eae8d9",
"cu c #eae9d5",
".G c #eae9d7",
".R c #eaebd9",
".e c #ebe8d5",
".# c #ebe8d7",
".d c #ebe8d9",
"#z c #ebe9d4",
".q c #ebe9da",
"cJ c #ebe9dc",
".g c #ebead6",
".o c #ebead8",
"bt c #ece8dc",
".b c #ece9d6",
"Qt c #ece9d8",
".c c #ece9da",
"bj c #ecead5",
"aI c #eceadb",
".h c #ecebd9",
"a# c #ede7d7",
".D c #ede7d9",
"bO c #ede7db",
"cF c #ede8d5",
"cI c #ede9dd",
".B c #edead7",
".a c #edead9",
".f c #edeadb",
"b4 c #edebd6",
"cH c #eee6d9",
".Q c #eee7d7",
".p c #eee8d8",
"cG c #eee8da",
".C c #eee9d6",
".w c #efe8d8",
".n c #efe9d9",
"ct c #efe9db",
".s c #efead7",
"cb c #efefed",
"#d c #f0e8db",
".u c #f1eff0",
".1 c #fafefd",
".v c #fbfffc",
"#X c #fbfffe",
".N c #fbffff",
".F c #fdfeff",
"#W c #fdfffc",
".z c #fdfffe",
"cc c #fefefc",
"#y c #fefeff",
"b3 c #fefffd",
"#c c #feffff",
".2 c #fffdfe",
"ao c #fffdff",
"ap c #fffefd",
".A c #fffeff",
"a. c #fffffb",
".0 c #fffffd",
".M c #ffffff",
"QtQtQtQtQtQtQtQtQtQtQtQtQtQtQtQtQtQtQtQtQtQtQtQtQtQtQt.#QtQtQtQt",
"QtQtQtQtQtQtQtQtQtQtQtQtQtQtQtQtQtQtQtQtQtQtQtQt.#.a.#Qt.bQtQtQt",
"QtQtQtQtQtQtQtQtQtQtQtQtQtQtQtQtQtQtQtQtQtQtQtQtQt.aQt.b.bQt.a.c",
"QtQtQtQtQtQtQtQtQtQtQtQtQtQtQtQtQtQtQtQtQtQtQtQt.b.#.aQtQtQt.d.c",
"QtQtQtQtQtQtQtQtQtQtQtQtQtQtQtQtQtQtQtQtQtQtQtQt.eQt.f.fQtQtQtQt",
"QtQtQtQtQtQtQtQtQtQtQtQtQtQtQtQtQtQtQtQtQtQtQtQtQt.#.fQtQt.g.g.h",
"QtQtQtQtQtQtQtQtQtQtQtQtQtQtQtQtQtQtQtQtQtQtQtQtQt.a.#QtQt.h.i.j",
"QtQtQtQtQtQtQtQtQtQtQtQtQtQtQtQtQtQtQtQtQtQtQtQtQt.#Qt.bQt.k.l.m",
"QtQtQtQtQtQtQtQtQt.#.nQtQtQtQt.o.n.pQt.h.q.c.c.q.r.b.s.o.f.t.u.v",
"QtQtQtQtQtQtQtQtQt.o.o.h.o.oQtQt.o.o.qQt.a.g.oQt.w.pQtQt.x.y.z.A",
"QtQtQtQtQtQtQtQt.o.aQt.o.pQtQt.n.c.#.BQt.a.#.p.C.q.D.qQt.E.A.A.F",
"QtQtQtQtQtQtQtQt.#Qt.#QtQt.o.o.G.bQt.c.fQt.a.q.H.I.J.K.p.L.M.M.N",
"QtQtQtQtQtQtQtQt.h.O.pQt.PQt.Q.h.cQt.G.R.S.T.U.V.W.X.Y.w.Z.0.1.2",
"QtQtQtQtQtQtQtQt.P.a.pQtQt.q.q.3.q.4.5.6.7.8.9.X#.###a.c#b.2#c.2",
"QtQtQtQtQtQtQtQt.pQt.oQt#d.q#e#f#g#h#i.X.9.X#j.8#k#l#h#m#n.M.M#c",
"QtQtQtQtQtQtQtQtQtQtQt.o#o#p#q#r#..8.8#.#.#s#t#u.9#v.X#w#x.M#y.M",
".o#z.b.c.g.g.w#A.q.s.q.f#B#..8#C#D#r#E#v.8#F#G#H.9#I#J#K#L#c.A.M",
".w.b.p.#.a.b#M#N#O.o.b.b#e.V#s.8#s#u#P#..8.X#Q#R#S.V#T#U#V.M#W#X",
".q.D.C.h.f#Y#Z#N#0.c.##1.q#2.X#.#.#E#3#J.8##.7#4#5#6###7#8#9a..M",
".g.eQt.aa#aaabac.f.b#Oadaeaf#E##ag.9ahai#.aj.Xah#sak#.alamanaoap",
".c.c.g.qaqarasat.oauavawaxayaz#PaA.8.7aBaCaD.9aEaFaGaH#maIaJaK#c",
".fQt.oaLaMaNaOaPaQaMaRaS.saT#aaFaUaVaWaXaYaZa0a1a2a3.paT.b.oa4a5",
".p.q.fa6a7.ea8a9b.b#babb.bQtbcbdbebfbgaWbhaWbibjbkblaIaI.w.hbmbn",
".c.B.p.o.C.abobpbqbrbs.bbt.bbubvbwbxby.MbzbAbBbCbDbEbFbGbHbIbxbJ",
".b.G.h.c.c.pbKbLbMarbNbObPbQbRbSbxbT.M.M.MbUaWbVbWbXbYbZb0b1b2b3",
"btQt.e.fb4.d.pa#b5b6b7b8b9c..fbWc#cacbcccdbxcecf.b.c.d.baIcgch#c",
"QtQt.bQt.#.o.Gci.EcjbHbX.c.d.pQtckaWclbTcmaWbC.o.e.#.#.B.Gcnbhco",
"QtQt.c.#.acpcqcrcs.H.qct.#cu.h.#cvcwbwaWaWcx#mQt.#.cQtQt.h.qcybw",
"QtQtQt.e.cczcAcB.a.o.o.h.o.b.g.f.o.ocC.LcD.o.c.sQtQt.#Qt.b.b.ocE",
".b.cbt.b.cQt.f.h.o.b.e.oQtcF.bQtQt.#.b.G.q.bbjcG.g.oQt.c.a.bQt.c",
".c.b.c.aQt.b.eQt.acH.p.f.a.o.q.cQt.dQtQtcI.d.bQtQtQt.c.f.c.c.f.f",
".b.#.b.cQt.#bt.e.o.qcJ.pcG.b.#Qt.g.c.d.a.#.h.g.hQtQtQtcKQtQtQt.b"};
