/* XPM */
static char *reset2[]={
"32 34 330 2",
".6 c #77514e",
"#. c #775150",
"c. c #7e5857",
"bG c #7f5755",
"at c #7f5d5b",
"cg c #805858",
"aE c #805f5a",
"bP c #825655",
"cV c #826b65",
"cY c #836a66",
"#G c #855d5b",
"#x c #855d5e",
"cz c #865e5e",
"#f c #866a66",
".7 c #885f5d",
"cJ c #886964",
"#6 c #886966",
"cP c #886a68",
"cO c #895c5f",
"cK c #895d5c",
"ad c #896a67",
"aL c #8a5c5c",
"cC c #8a5e5d",
"#o c #8b5d5d",
"#g c #8b5d5f",
".9 c #8b5f5e",
"cy c #8b7770",
"aV c #8c5e5e",
"ah c #8c5e60",
"bq c #8c605f",
"cN c #8c6061",
"#Z c #8c6464",
"bE c #8d5d5d",
"ap c #8d5f5f",
"bT c #8d5f61",
"bk c #8d6160",
"#O c #8d6462",
"cW c #8d716d",
".8 c #8e5e5e",
"bu c #8e6060",
"#y c #8e6062",
"#p c #8e716b",
"bp c #8e7d76",
"c# c #8f6161",
"bS c #8f7671",
"bv c #8f7e77",
"cL c #905f62",
"#h c #906060",
"#Y c #906262",
"cf c #906360",
"cM c #915f60",
"cs c #91615f",
"#n c #916161",
"bH c #926262",
"cB c #926562",
"cU c #92847b",
"bx c #929286",
"bb c #929288",
"ac c #935f63",
"aD c #936162",
"#i c #936363",
".5 c #937672",
"## c #937773",
"bo c #939387",
"bO c #946464",
"cD c #947d77",
"a5 c #949188",
"cl c #956163",
"#m c #956364",
"bU c #956467",
"b4 c #956563",
"#k c #956565",
"#Q c #956767",
"aT c #959386",
"c9 c #959387",
"cA c #966463",
"#j c #966465",
"bN c #966568",
"ct c #966664",
"ck c #96837c",
"d# c #969286",
"#4 c #969287",
"#l c #976365",
"bf c #976463",
"#F c #976564",
"ab c #976566",
"#z c #976662",
"bg c #976763",
"#V c #976765",
"au c #976767",
"cX c #977574",
"cr c #977b77",
"cm c #97837c",
"#S c #986466",
"aQ c #986468",
"#8 c #986562",
"#7 c #986564",
"#B c #986665",
"#9 c #986667",
"#U c #986669",
"a0 c #986763",
"aa c #986866",
"b5 c #987c78",
"#D c #996567",
"bK c #996569",
"a# c #996663",
"#E c #996665",
"#X c #996766",
"#C c #996768",
"bz c #99676a",
"aC c #996864",
"aJ c #99978a",
"bn c #99998d",
"#P c #9a6366",
"b0 c #9a6464",
"#R c #9a6668",
"#T c #9a666a",
"bZ c #9a6764",
"#A c #9a6766",
"c8 c #9a988c",
"da c #9a9a8e",
"aN c #9b6467",
"#W c #9b6565",
"aU c #9b9188",
"#u c #9b998d",
"av c #9c6465",
"aB c #9c6568",
"a. c #9c6666",
"ba c #9c8983",
"a1 c #9c9289",
".0 c #9c998a",
"a6 c #9d8982",
"bw c #9d9b8e",
".n c #9d9b8f",
"cu c #9e827e",
"a3 c #9e9a8e",
"c4 c #9e9a8f",
".o c #9e9c90",
"bB c #9f6f6f",
"ci c #9f9d91",
".W c #a09e91",
"as c #a0a193",
".J c #a19a90",
".v c #a19f92",
".G c #a2a093",
"c7 c #a2a094",
"bl c #a3908a",
"ag c #a3968d",
"cH c #a3a192",
"c5 c #a3a194",
"cv c #a3a397",
"be c #a48f8a",
".U c #a4a192",
"aO c #a5797a",
".F c #a5a195",
"#L c #a5a599",
"cc c #a67878",
"aY c #a6797c",
".m c #a6a296",
".S c #a6a297",
"cI c #a79d91",
"cQ c #a79d93",
"cx c #a7a596",
"bR c #a7a598",
".p c #a7a599",
"#s c #a8a596",
"#b c #a9a599",
"cn c #a9a79a",
"bs c #aa8282",
"aK c #aaa399",
"aR c #aaa498",
"b3 c #ab8280",
"#N c #aca298",
"aF c #acaa9b",
"#a c #ada397",
"by c #ada399",
".l c #ada99d",
".R c #adab9e",
"b8 c #adab9f",
"aq c #ae9d95",
"#0 c #aea198",
"bF c #aea49a",
".w c #aeaa9e",
".4 c #afa299",
".q c #afab9f",
"c1 c #afada0",
"bJ c #b08c8c",
".3 c #b0aca0",
"#d c #b0ad9e",
"b6 c #b0ae9f",
"cZ c #b1a99e",
"dd c #b1ada2",
"dc c #b1afa2",
"ax c #b28b8c",
"bA c #b28c89",
"a8 c #b28c8b",
"cT c #b2aa9f",
"de c #b2aea3",
"ay c #b38c8f",
"ce c #b48a8b",
"aX c #b48c8c",
"a9 c #b59596",
".X c #b5a89f",
".Y c #b5a8a0",
"#e c #b6b0a4",
"#q c #b7afa2",
"b9 c #b7afa4",
"bL c #b89695",
"bD c #b89792",
"#w c #b8b0a3",
"ch c #b8b0a5",
"cF c #b8b6a7",
".K c #b8b6aa",
"#1 c #b9b5a9",
"c0 c #b9b6a7",
"cR c #b9b7a8",
"bQ c #b9b7aa",
".u c #b9baac",
"d. c #bab6aa",
"#2 c #babbad",
"#H c #bbaea5",
"c2 c #bcb9aa",
"bj c #bda09c",
"cG c #bdbaab",
"c3 c #bebaaf",
"c6 c #bfbdb0",
"cE c #c3c3b7",
".E c #c3c4b4",
".V c #c3c4b6",
".O c #c4c2b3",
".y c #c4c2b5",
"#r c #c4c5b5",
"cq c #c4c5b7",
"bV c #c5a7a7",
"cj c #c5c1b5",
"cS c #c5c2b3",
".D c #c5c3b4",
".A c #c5c3b6",
"ae c #c5c3b7",
"#v c #c5c4b2",
"bY c #c6a8a8",
".B c #c6c2b6",
".N c #c6c3b4",
"a2 c #c6c4b5",
".x c #c6c4b7",
".L c #c6c4b8",
"bd c #c6c5b3",
"#5 c #c7c1b3",
".P c #c7c1b5",
".M c #c7c3b7",
"#I c #c7c4b5",
"af c #c7c5b6",
".C c #c8c2b4",
".Q c #c8c2b6",
"bm c #c9c1b4",
"bc c #c9c1b6",
".Z c #c9c3b5",
".z c #c9c3b7",
"cd c #cab1b4",
"#M c #cac2b5",
"cp c #cac8bc",
"cb c #ccb2b1",
"ao c #ccb2b3",
"ca c #ccb2b5",
".2 c #ccc9ba",
".H c #cccdbf",
".T c #cdcabb",
"b7 c #cdcbbc",
".k c #cecbbc",
"ar c #ceccbd",
"aA c #cfbdbd",
"db c #cfccbd",
"b# c #d2bdbc",
"bX c #d9c5c6",
".r c #dbd8c7",
"cw c #dcd8cc",
".1 c #dcd9ca",
".I c #dddacb",
"#c c #dedbcc",
"b2 c #dfd1d0",
"aW c #e3d7d7",
"aw c #e4d8d8",
"a7 c #e4d9d7",
"aM c #e5d6d9",
"bh c #e6d7dc",
"bI c #e6d8d7",
"br c #e6d8d8",
"b1 c #e8d8db",
"df c #e8e9d9",
"bt c #eae2e0",
"aS c #eae7d8",
".e c #eae8d9",
".s c #eae9d5",
"aH c #eae9d7",
"az c #ebe3e0",
"#t c #ebe7db",
"dh c #ebe8d5",
".a c #ebe8d7",
".i c #ebe8d9",
".f c #ebe9da",
"co c #ebead6",
".d c #ebead8",
".t c #ece8dc",
".c c #ece9d6",
"Qt c #ece9d8",
".g c #ece9da",
"#J c #eceadd",
"#3 c #ecebd9",
"aG c #ede7d7",
"dg c #ede8d5",
".j c #edead7",
".# c #edead9",
"a4 c #edeadb",
".b c #eee8d8",
".h c #eee8da",
"#K c #eee9d6",
"aI c #efe9db",
"bM c #f1ebeb",
"bW c #f1ece9",
"b. c #f3ebe9",
"an c #f6f4f5",
"ai c #f6f7f1",
"bC c #f7f5f6",
"aZ c #f7f6f4",
"aP c #faf6f7",
"aj c #fdfeff",
"al c #feffff",
"am c #fffeff",
"bi c #fffffd",
"ak c #ffffff",
"Qt.#Qt.#Qt.aQtQtQtQtQt.a.#.bQtQt.cQt.aQtQt.dQtQtQtQtQtQtQtQtQtQt",
"Qt.#.a.aQt.#.aQtQt.bQt.d.e.f.g.h.i.f.d.a.#QtQtQtQtQtQt.#QtQtQtQt",
"Qt.aQt.#QtQtQt.#.c.jQt.k.l.m.n.o.o.n.p.q.r.j.s.cQtQtQt.aQtQtQtQt",
"Qt.a.#.aQt.a.#.a.t.u.v.w.x.y.z.A.B.C.D.E.F.G.H.gQt.a.#Qt.aQtQt.a",
"Qt.#Qt.#Qt.a.a.I.J.K.L.B.B.M.N.N.D.O.M.P.Q.B.R.S.gQtQtQtQtQtQtQt",
"QtQt.#Qt.a.g.T.U.D.C.B.A.M.V.W.X.Y.W.A.B.A.M.Z.O.0.1.iQt.a.#.aQt",
".a.#.aQtQt.2.3.B.B.A.A.4.5.6.7.8.8.9#.###a.D.A.M.M#b#cQt.aQt.#Qt",
"Qt.aQt.a.2#d.A.A.D#e#f#g#h#i#j#j#k#l#m#n#o#p#q#r.B.M#s.I.#.aQt.a",
".sQtQt#t#u#v.A.x#w#x#y#m#z#A#B#B#C#D#E#F#l#n#G#H.A.A#I.F#J#KQt.d",
".cQt.d#L.A#M.A#N#O#n#P#Q#R#S#T#U#E#V#W#U#X#F#Y#Z#0.A.C#1#2.d.dQt",
".c.e#3#4.x#5.x#6#y#7#B#8#9#X#Ea.a##X#Daa#E#Xabacad.B.N.B.W.d.#Qt",
".a#3.R.Maeafagah#m#B#D#Taiajakalamanao#B#W#E#E#zapaq.x.M.lar.a.#",
"Qt.bas.x.A.Nat#n#Sau#Bav#9awax#9#9ayazaAaBaC#W#FaDaE.B.Q.AaF.#aG",
"aHaIaJ.A.NaKaL#m#B#R#A#B#XaMaxaN#R#7aOaP#BaQ#9#9#j.9aR.B.E.GQtQt",
".#aSaT.B.NaUaV#l#A#E#B#E#XaWaXau#Ea.aYaZa#aNaCa0#S.8a1.Ba2a3a4.d",
"QtQta5.D.Ma6ap#j#D#BaB#9#9a7a8#D#Ea9b.b##9#9#9#E#F#hba.Z.D.o.g.b",
".d.dbbbcbdbe.9bfau#D#9bg#9bhbiakamakbj#D#C#E#R#V#Wbkbl.Dbmbn.g.d",
".d.bbo.M.NbpbqbfaNaaav#Aa.bra8#9bsbtb##D#D#Da##E#7bubv.D#Ibw.gQt",
"Qt.bbx.x#IbyaV#ma0#E#BbzabawbA#E#XbBbCbD#E#Da.#DabbEbF.A.Ba3.gaG",
"aGQt.n.x.D#1bGbH#F#E#X#SaBbIbJbK#E#XbLbM#F#XbN#RbObPbQ.x.zbR.g.b",
"Qt.dbR.B.D.xbSbTbU#Aa0#EbVbWbXbYbZ#Db0b1b2b3a.b4#hb5.A.A.Mb6a4.d",
".dQtb7b8.B#Ib9c.c##7au#Daocacacb#9aCaucccdce#8cfcgch.N.MaJ.#.g.d",
".d.c.gcicj.Z.Vck.9aDbN#9#9#E#B#V#DaNa##B#R#Dcl.9cm.V.C.AcnaGQtQt",
"aGco.#cp.w.Ccq.Bcr#gcs#k#7#D#E#B#B#Xab#SctaD.9cu.A.B.Ncvcw.c.d.b",
"QtQtQt.gcx.A.A.x.Acyczap#Y#k#F#7#F#7cAcB#ncCcDcE.A.xcFcGQtQt.#Qt",
"Qt.aQt.a.gcH.A.A.B.AcIcJcKah#ycLcMc#cNcOcPcQ.E#I.xcRcF.g.aQt.#.a",
"QtQtQtQtQt.fcH.A#IcS.M.BcTcUcVcWcXcYcUcZ.Q.A.B.BcRc0.g.#.aQt.a.#",
".a.#.aQt.aQt.g#s#1.M.B.xcj.C#I#r.D.N.z.M.x.A.yc1c2.gQt.a.aQt.#Qt",
"QtQtQt.aQtQt.a.gc3c4bQ#I.N.N.B.z.N.N.B.B.B.lc5b7QtQt.aQtQtQtQt.a",
".#.a.#Qt.aQtQtQtQt.fc6c7c8c9.A.E.Dd.d#dabRdbaG.#.#Qt.#QtQtQtQtQt",
"QtQt.aQt.#Qt.aQt.i#3.dQtQt.edcdddec6dfaH#3.d#3.gQt.#.aQtQtQtQtQt",
"QtQt.#Qt.aQtQtQt.cdgQtQtQtQt.ccodh.cQt.baGQtQtQtQtQtQtQtQtQtQtQt",
"akakakakakakakakakakakakakakakakakakakakakakakakakakakakakakakak",
"akakakakakakakakakakakakakakakakakakakakakakakakakakakakakakakak"};
